<?xml version="1.0" encoding="UTF-8"?>
<!DOCTYPE svg PUBLIC "-//W3C//DTD SVG 1.1//EN" "http://www.w3.org/Graphics/SVG/1.1/DTD/svg11.dtd">
<!-- Creator: CorelDRAW -->
<svg xmlns="http://www.w3.org/2000/svg" xml:space="preserve" width="148mm" height="210mm" version="1.1" style="shape-rendering:geometricPrecision; text-rendering:geometricPrecision; image-rendering:optimizeQuality; fill-rule:evenodd; clip-rule:evenodd"
viewBox="0 0 14800 21000"
 xmlns:xlink="http://www.w3.org/1999/xlink">
 <defs>
  <style type="text/css">
   <![CDATA[
    .fil0 {fill:none}
    .fil2 {fill:#373535}
    .fil3 {fill:#373535}
    .fil4 {fill:#F58735}
    .fil1 {fill:#CDE8D5;fill-opacity:0.709804}
   ]]>
  </style>
 </defs>
 <g id="Layer_x0020_1">
  <metadata id="CorelCorpID_0Corel-Layer"/>
  <rect class="fil0" x="5595.75" y="13962.25" width="472.2" height="563.89"/>
  <path class="fil1" d="M5969.73 14034.55l0 84.19c0,7.73 -6.33,14.05 -14.06,14.05l-45.32 0c-7.73,0 -14.05,-6.32 -14.05,-14.05l0 -84.19c0,-7.73 6.32,-14.06 14.05,-14.06l45.32 0c7.73,0 14.06,6.33 14.06,14.06z"/>
  <path class="fil2" d="M5890.28 14224.38l0 69.64c0,7.73 -6.33,14.05 -14.06,14.05l-75.89 0c-7.73,0 -14.06,-6.32 -14.06,-14.05l0 -69.64c0,-7.73 6.33,-14.05 14.06,-14.05l75.89 0c7.73,0 14.06,6.32 14.06,14.05z"/>
  <path class="fil1" d="M5891 14004.18l0 187.12c0,7.73 -6.32,14.05 -14.05,14.05l-75.89 0c-7.73,0 -14.06,-6.32 -14.06,-14.05l0 -187.12c0,-7.73 6.33,-14.06 14.06,-14.06l75.89 0c7.73,0 14.05,6.33 14.05,14.06z"/>
  <path class="fil3" d="M5781.12 14113.49l0 103.77c0,7.73 -6.32,14.06 -14.05,14.06l-115.67 0c-7.73,0 -14.06,-6.33 -14.06,-14.06l0 -103.77c0,-7.73 6.33,-14.06 14.06,-14.06l115.67 0c7.73,0 14.05,6.33 14.05,14.06z"/>
  <path class="fil1" d="M5781.12 14361.19l0 77.5c0,7.73 -6.32,14.06 -14.05,14.06l-63.12 0c-7.73,0 -14.05,-6.33 -14.05,-14.06l0 -77.5c0,-7.72 6.32,-14.05 14.05,-14.05l63.12 0c7.73,0 14.05,6.33 14.05,14.05z"/>
  <path class="fil1" d="M5781.12 14250.91l0 77.5c0,7.73 -6.32,14.06 -14.05,14.06l-63.12 0c-7.73,0 -14.05,-6.33 -14.05,-14.06l0 -77.5c0,-7.73 6.32,-14.05 14.05,-14.05l63.12 0c7.73,0 14.05,6.32 14.05,14.05z"/>
  <path class="fil1" d="M5781.12 14013.88l0 65.96c0,7.73 -6.32,14.05 -14.05,14.05l-63.12 0c-7.73,0 -14.05,-6.32 -14.05,-14.05l0 -65.96c0,-7.73 6.32,-14.06 14.05,-14.06l63.12 0c7.73,0 14.05,6.33 14.05,14.06z"/>
  <path class="fil2" d="M6025.67 14289.43l0 79.48c0,7.73 -6.33,14.06 -14.06,14.06l-101.26 0c-7.73,0 -14.05,-6.33 -14.05,-14.06l0 -79.48c0,-7.73 6.32,-14.05 14.05,-14.05l101.26 0c7.73,0 14.06,6.32 14.06,14.05z"/>
  <path class="fil1" d="M6013.34 14152.41l0 103.78c0,7.73 -6.32,14.05 -14.05,14.05l-88.94 0c-7.73,0 -14.05,-6.32 -14.05,-14.05l0 -103.78c0,-7.73 6.32,-14.05 14.05,-14.05l88.94 0c7.73,0 14.05,6.32 14.05,14.05z"/>
  <path class="fil1" d="M5891 14327.54l0 154.38c0,7.73 -6.32,14.06 -14.05,14.06l-75.89 0c-7.73,0 -14.06,-6.33 -14.06,-14.06l0 -154.38c0,-7.73 6.33,-14.06 14.06,-14.06l75.89 0c7.73,0 14.05,6.33 14.05,14.06z"/>
  <rect class="fil4" transform="matrix(1.62786E-016 0.00614872 -1.05257E-002 2.78617E-016 5952.34 14387.7)" width="8748.89" height="5324.47" rx="1391.06" ry="1391.06"/>
 </g>
</svg>
